PathFileType	4	(X/Y/Z)	C:/Users/beibeiliu/ov580/test_trc/User3\sequence.37_training_dense_right.trc
DataRate	CameraRate	NumFrames	NumMarkers	Units	OrigDataRate	OrigDataStartFrame	OrigNumFrames
120	120	22	19	mm	120	240	274
Frame#	Time	ThumbCMC			ThumbMCP			ThumbIP			ThumbTip			IndexMCP			IndexPIP			IndexTip			MiddleMCP			MiddlePIP			MiddleTip			RingMCP			RingPIP			RingTip			PinkyMCP			PinkyPIP			PinkyTip			BackHand1			BackHand2			BackHand3	
		X0	Y0	Z0	X1	Y1	Z1	X2	Y2	Z2	X3	Y3	Z3	X4	Y4	Z4	X5	Y5	Z5	X6	Y6	Z6	X7	Y7	Z7	X8	Y8	Z8	X9	Y9	Z9	X10	Y10	Z10	X11	Y11	Z11	X12	Y12	Z12	X13	Y13	Z13	X14	Y14	Z14	X15	Y15	Z15	X16	Y16	Z16	X17	Y17	Z17	X18	Y18	Z18	
239	1.99167	71.1004	17.7602	26.9235	55.4325	27.23	4.18545	40.8808	40.8724	-20.1094	48.2777	51.4868	-47.9501	77.3455	79.4922	-14.0375	61.8378	73.4171	-41.8068	57.7559	40.4283	-32.2166	95.7727	78.4598	-29.1051	80.8414	67.3967	-55.9633	74.5219	30.7919	-38.1003	110.387	67.3667	-38.3311	95.3961	51.1696	-58.7328	90.3791	22.254	-39.9546	126.294	49.0727	-38.1475	106.984	40.5791	-55.3373	101.282	11.311	-40.8077	128.981	43.1412	11.2569	135.244	18.4153	29.8132	106.08	34.5663	36.4445	
240	2	77.5608	17.4576	21.1538	55.6016	30.8686	-3.80901	48.2721	43.0822	-27.442	52.7759	50.8524	-53.7965	87.0125	80.3696	-23.7628	70.1388	70.5995	-50.4584	63.8327	43.1918	-39.1688	103.348	78.3735	-36.03	86.5141	68.739	-59.9784	79.0238	30.0935	-43.4597	116.882	65.0612	-40.1068	100.676	51.865	-62.9406	91.9203	25.7555	-50.0766	131.786	50.0642	-44.3797	113.411	40.9919	-60.6614	104.38	15.0931	-48.7943	136.718	37.978	9.50099	141.8	13.2267	29.2063	109.597	37.1277	31.8564	
241	2.00833	80.1936	17.4872	13.3371	61.0574	28.9045	-14.5198	55.5957	40.9341	-39.7228	65.015	45.3334	-65.4299	94.0039	74.8846	-34.4715	80.8179	72.1336	-63.4195	69.6324	41.3277	-57.8484	111.275	73.0687	-45.6774	95.6045	66.2245	-73.3335	90.1697	29.0198	-66.9036	126.627	59.7461	-49.1067	113.052	48.5058	-75.7348	103.085	20.1937	-67.0342	140.991	41.495	-47.4888	125.927	36.7256	-70.5385	110.811	8.39043	-63.7752	140.232	35.0525	2.95058	140.867	12.4962	22.8771	112.533	36.63	21.1898	
242	2.01667	83.1472	13.0886	0.596259	68.3427	17.9528	-26.0729	56.556	24.8514	-54.178	64.4503	23.874	-76.9823	98.9657	61.8196	-51.5625	92.0521	61.7921	-85.4462	82.1681	31.2285	-92.3642	122.552	59.1322	-62.3433	109.59	55.7784	-94.9826	101.169	21.4725	-98.3791	137.73	44.4334	-61.0367	128.935	40.8352	-92.2802	115.09	7.91264	-92.9311	151.968	25.6664	-55.019	142.616	24.2485	-84.8336	122.983	0.774185	-89.4437	141.089	28.2656	-13.3889	145.627	10.9706	14.5811	113.837	30.2045	8.6658	
243	2.025	83.7034	4.77602	-7.92863	67.9413	2.41849	-36.5774	58.73	1.9416	-66.0388	58.09	-4.03205	-90.1333	108.148	42.1871	-78.0505	102.323	41.3413	-107.374	94.8423	17.7214	-125.818	131.839	38.2566	-77.5499	130.594	40.3747	-111.661	119.59	9.81474	-133.072	145.371	27.0038	-74.7178	145.607	25.7708	-104.452	136.876	1.15621	-122.001	157.576	7.8799	-62.7762	159.553	7.61455	-91.4109	149.761	-10.2182	-106.254	148.652	18.1226	-27.5781	146.957	10.431	2.89037	114.893	27.1226	-10.0916	
244	2.03333	85.952	-4.89047	-16.3634	71.5551	-16.6127	-44.4904	59.244	-27.0233	-72.4097	54.8376	-38.0435	-90.6233	112.376	14.1039	-91.5942	109.131	12.1437	-121.677	106.195	-4.53225	-146.253	134.124	15.8921	-90.6514	139.831	13.7607	-122.751	137.562	-4.7298	-154.14	154.221	6.65014	-82.492	161.303	4.41208	-108.923	158.894	-14.6314	-137.722	167.38	-9.08192	-65.3329	173.305	-10.6745	-90.9224	174.983	-27.6809	-114.759	147.53	10.7269	-33.6683	148.031	8.74293	-4.57044	115.625	18.6395	-27.4605	
245	2.04167	87.3302	-15.3975	-21.7959	73.3325	-34.5795	-45.7698	63.1985	-50.1975	-65.5351	57.9988	-66.5156	-82.4264	112.255	-10.8491	-96.6145	107.561	-15.49	-123.062	112.377	-26.3955	-151.006	139.568	-6.73179	-99.8794	141.855	-11.2816	-126.347	144.372	-19.2359	-156.233	159.051	-12.5142	-86.4186	163.538	-15.2929	-113.561	171.902	-25.9594	-135.685	174.137	-21.9993	-69.8953	180.553	-26.151	-88.7154	189.18	-34.5291	-110.607	149.381	-0.407142	-44.1818	146.795	7.38005	-11.4474	114.455	7.14268	-33.4315	
246	2.05	86.7295	-23.1221	-26.7399	74.103	-45.5685	-45.6041	65.9151	-64.6464	-62.7801	59.4343	-82.078	-78.6075	113.461	-26.428	-99.6102	109.589	-32.8702	-127.831	111.608	-39.2635	-148.692	140.791	-21.5787	-104.225	145.316	-27.3185	-129.547	145.74	-35.7649	-160.827	155.51	-24.3799	-89.9734	168.016	-28.2757	-114.022	176.896	-37.4338	-136.723	173.747	-31.5712	-68.924	183.342	-34.5686	-84.8977	197.442	-40.146	-109.262	152.793	-6.44777	-46.7158	148.783	3.81039	-17.1971	114.213	0.0363348	-38.5861	
247	2.05833	87.4919	-27.0777	-26.8748	74.662	-50.018	-44.4789	64.7253	-70.4309	-61.4047	56.3882	-86.7669	-73.6153	111.795	-32.7558	-100.064	110.765	-41.5795	-127.494	109.99	-49.1741	-151.741	139.389	-29.1852	-103.49	144.009	-35.7162	-130.599	146.462	-44.0702	-158.747	161.746	-30.7385	-92.5482	171.218	-36.336	-112.799	178.68	-44.889	-137.92	178.774	-35.4131	-69.3375	186.471	-39.6021	-87	202.019	-45.2672	-104.049	152.676	-11.7185	-44.0032	146.926	-0.476747	-20.1873	116.546	-3.86775	-42.8265	
248	2.06667	91.3321	-30.1229	-25.3267	77.4071	-51.5292	-41.0698	66.5863	-73.0189	-61.633	57.9706	-90.3474	-72.5306	114.111	-35.9502	-100.494	114.668	-43.6609	-124.483	114.577	-51.9201	-148.008	144.844	-31.9084	-104.685	145.291	-38.7461	-130.225	150.079	-48.8355	-158.321	160.615	-34.3419	-89.3163	168.248	-38.258	-111.264	179.432	-48.5659	-138.127	178.637	-37.6624	-67.1049	189.264	-42.1852	-85.5575	205.705	-46.8493	-105.733	153.512	-12.7029	-44.9751	153.501	-0.244403	-18.114	120.606	-8.00246	-40.5959	
249	2.075	94.7466	-30.3789	-23.4874	79.1479	-54.33	-44.0731	69.1099	-73.2976	-59.6791	60.233	-92.8564	-74.5021	117.283	-36.9281	-101.343	113.445	-44.9221	-124.882	115.988	-53.5024	-146.665	145.951	-32.4564	-104.248	146.084	-39.1559	-128.04	153.561	-51.3571	-158.605	162.674	-35.1912	-91.8383	171.829	-40.6239	-112.627	180.206	-50.3611	-136.918	177.343	-38.9844	-69.0424	193.58	-43.0756	-82.6108	204.619	-49.5474	-106.375	151.878	-13.8645	-45.3675	151.388	-2.17459	-15.7707	123.927	-6.90042	-38.1653	
250	2.08333	92.3746	-33.1009	-26.8511	76.7768	-54.292	-40.2125	65.5771	-74.4241	-60.5762	62.7241	-91.3886	-73.4383	114.443	-37.7642	-101.592	116.264	-44.7142	-122.43	113.819	-54.2301	-145.136	144.072	-34.1942	-100.222	149.51	-41.3593	-127.962	153.179	-53.7019	-156.239	164.933	-37.0575	-85.4197	173.203	-42.305	-109.843	181.341	-52.7603	-136.454	179.547	-40.5473	-66.5409	193.299	-43.9102	-85.5367	204.612	-50.662	-103.984	152.259	-14.2315	-42.3377	150.454	-5.24051	-17.6362	120.143	-9.99192	-40.4134	
251	2.09167	90.3988	-32.5113	-24.544	79.7947	-53.5794	-39.2364	67.9377	-72.974	-57.76	60.5135	-90.6474	-75.4554	113.388	-37.5999	-95.5646	110.651	-46.7874	-124.179	114.968	-57.5442	-148.863	140.556	-34.5341	-99.4647	146.974	-43.7061	-127.917	149.137	-54.342	-154.976	161.368	-37.8975	-87.4911	172.678	-43.4943	-109.71	177.769	-55.1859	-135.428	180.354	-40.5532	-65.7422	190.802	-45.778	-85.7395	202.367	-49.6644	-105.302	152.421	-14.9662	-44.8529	153.943	-6.85287	-16.5898	120.691	-11.0554	-38.7153	
252	2.1	90.3455	-33.6358	-23.3584	76.1645	-53.6976	-42.7816	65.5312	-72.6361	-59.9941	61.5548	-88.5341	-72.3703	117.531	-37.7632	-96.2114	112.808	-47.8381	-123.605	110.533	-57.9283	-148.201	141.294	-35.5899	-99.8416	147.207	-43.3206	-124.54	148.866	-57.8592	-156.92	160.309	-38.684	-86.9435	170.437	-43.6906	-109.919	176.401	-55.2537	-135.554	174.829	-41.5566	-67.7187	190.616	-46.0401	-83.7984	202.924	-51.425	-102.593	154.339	-15.0304	-42.216	153.648	-5.97818	-14.6783	121.917	-10.0805	-36.7404	
253	2.10833	89.2468	-32.9854	-25.5531	77.0366	-51.6806	-38.9041	61.8027	-71.5724	-62.8907	54.1506	-86.1558	-75.1097	111.613	-37.5607	-97.15	109.045	-47.3436	-122.636	107.693	-56.5957	-143.488	137.816	-35.5064	-99.9238	145.541	-44.2089	-128.261	146.069	-56.5407	-156.884	160.959	-38.2803	-87.9636	166.443	-44.6131	-109.456	173.301	-54.9309	-135.409	176.737	-42.648	-65.8964	186.47	-46.1026	-83.1494	200.126	-51.3524	-102.899	152.84	-17.8223	-42.732	148.728	-4.78521	-15.5648	120.872	-9.04606	-35.7214	
254	2.11667	90.3592	-33.4848	-23.1218	76.3668	-53.4225	-41.4429	63.9448	-70.6795	-61.8313	59.1606	-87.319	-78.223	114.064	-38.1195	-101.289	111.48	-47.9363	-122.173	106.651	-60.4765	-149.234	137.225	-34.9591	-100.191	142.696	-44.1539	-128.778	146.755	-59.2645	-158.383	158.7	-38.2254	-89.3235	164.918	-43.9969	-113.443	171.982	-56.5192	-138.134	177.651	-42.325	-67.1035	184.615	-48.2944	-89.7501	196.032	-55.8932	-105.11	153.58	-16.4796	-40.5164	147.398	-6.90571	-17.8878	117.396	-9.93122	-35.1107	
255	2.125	88.524	-38.5051	-23.2207	75.2341	-60.1081	-45.2805	62.4357	-79.5865	-63.7867	58.2078	-96.6964	-80.0694	113.033	-42.2583	-98.4973	110.232	-54.2899	-125.826	109.917	-71.145	-149.586	139.295	-39.424	-103.372	144.356	-49.8169	-129.258	147.035	-67.2883	-154.084	158.153	-42.4357	-87.9078	167.252	-50.4019	-117.119	171.265	-64.2164	-136.85	178.076	-46.537	-68.3672	187.49	-54.2236	-88.736	195.74	-63.7175	-106.134	152.051	-22.0788	-44.8415	147.931	-10.547	-14.7637	115.882	-16.1113	-37.9874	
256	2.13333	94.5619	-56.1627	-26.6996	83.7118	-79.8352	-42.5267	74.9502	-100.199	-61.813	74.6582	-116.924	-74.4024	118.8	-62.9969	-99.3974	114.98	-76.9873	-122.829	116.93	-100.273	-140.01	144.563	-57.2163	-99.3407	149.487	-72.8832	-127.07	150.496	-99.9026	-148.966	158.3	-59.2461	-92.3885	170.85	-70.8514	-112.46	173.468	-91.1611	-131.847	180.618	-60.7563	-71.0094	187.931	-72.1988	-90.494	197.351	-85.1862	-103.572	151.206	-34.4021	-44.5011	148.9	-22.5846	-19.0796	121.385	-28.3843	-36.1504	
257	2.14167	94.5434	-63.9958	-19.5401	89.5939	-90.0557	-35.4305	80.7005	-114.146	-51.2959	85.8369	-133.012	-67.2376	114.612	-77.683	-96.5812	118.139	-100.569	-118.237	117.472	-126.451	-123.908	138.954	-72.6145	-100.387	144.142	-93.9262	-121.786	147.827	-130.12	-129.319	157.345	-72.6467	-89.5895	166.78	-92.531	-110.51	167.38	-120.213	-117.708	178.899	-72.6425	-69.2829	186.703	-86.3863	-87.017	190.915	-112.728	-98.5287	154.671	-44.5852	-46.8146	152.708	-29.2911	-20.43	121.63	-37.9983	-35.3802	
258	2.15	96.8048	-67.9855	-11.2389	83.6785	-97.7484	-26.8449	81.5192	-121.963	-40.9286	89.9492	-143.661	-54.9281	110.335	-85.9134	-87.6926	108.294	-115.82	-106.34	109.237	-141.252	-99.3277	134.047	-86.6082	-93.7899	130.396	-117.687	-111.865	132.862	-151.271	-96.9448	154.039	-88.1068	-87.2755	154.714	-114.782	-101.223	152.65	-145.262	-88.1564	169.619	-84.6376	-65.3686	177.339	-107.716	-83.4463	169.165	-134.611	-80.3429	150.762	-49.5892	-45.1422	155.945	-36.7712	-20.541	118.328	-42.9094	-34.5939	
259	2.15833	93.0321	-67.1696	-6.36362	82.473	-97.0054	-18.3389	77.7446	-122.581	-31.344	87.3029	-143.695	-41.8654	96.9504	-92.2757	-82.5717	92.8204	-122.392	-92.6653	92.7612	-148.053	-72.8159	122.792	-97.6524	-90.2065	114.87	-128.307	-96.4795	120.064	-152.821	-70.3087	138.767	-95.9889	-79.7969	140.777	-125.134	-87.6256	134.208	-148.256	-64.3684	162.396	-96.1902	-67.5797	158.431	-125.193	-73.61	150.411	-143.69	-57.2315	148.665	-55.8905	-46.5104	154.911	-40.278	-17.2414	113.884	-44.8535	-28.1912	
260	2.16667	88.833	-63.3981	0.852563	75.6482	-91.2804	-7.6865	67.5767	-120.019	-21.7295	79.825	-143.477	-34.5962	90.6336	-93.7464	-76.2017	83.5865	-122.889	-82.0517	82.0665	-141.633	-52.7631	110.884	-98.3514	-79.6901	103.579	-132.519	-82.5339	105.176	-144.515	-44.9677	127.705	-103.6	-73.9558	124.085	-134.82	-71.9082	121.029	-142.488	-39.0969	150.513	-105.916	-63.1	144.11	-131.856	-58.8714	135.771	-138.519	-31.9866	143.677	-57.9144	-40.3934	149.871	-41.7523	-16.4589	113.283	-45.1402	-29.2913	
